{
  "accessors": [
    {
      "bufferView": 2,
      "componentType": 5126,
      "count": 65532,
      "max": [
        547.0724487304688,
        325.44482421875,
        472.4706726074219
      ],
      "min": [
        -451.72314453125,
        -421.8282775878906,
        -510.1762390136719
      ],
      "type": "VEC3"
    },
    {
      "bufferView": 2,
      "byteOffset": 786384,
      "componentType": 5126,
      "count": 65532,
      "max": [
        0.9999968409538269,
        0.9999998807907104,
        0.9998862743377686
      ],
      "min": [
        -0.9999273419380188,
        -0.9999669790267944,
        -0.9999748468399048
      ],
      "type": "VEC3"
    },
    {
      "bufferView": 1,
      "componentType": 5126,
      "count": 65532,
      "max": [
        0.9998624920845032,
        0.9998607039451599
      ],
      "min": [
        0.0001387737866025418,
        0.00020742416381835938
      ],
      "type": "VEC2"
    },
    {
      "bufferView": 0,
      "componentType": 5125,
      "count": 221289,
      "type": "SCALAR"
    },
    {
      "bufferView": 2,
      "byteOffset": 1572768,
      "componentType": 5126,
      "count": 65533,
      "max": [
        546.0667724609375,
        332.67498779296875,
        470.5008850097656
      ],
      "min": [
        -452.9275817871094,
        -421.08026123046875,
        -510.3970642089844
      ],
      "type": "VEC3"
    },
    {
      "bufferView": 2,
      "byteOffset": 2359164,
      "componentType": 5126,
      "count": 65533,
      "max": [
        0.999966561794281,
        0.9999998807907104,
        0.9998891353607178
      ],
      "min": [
        -0.9999362230300903,
        -0.9999669790267944,
        -0.9999748468399048
      ],
      "type": "VEC3"
    },
    {
      "bufferView": 1,
      "byteOffset": 524256,
      "componentType": 5126,
      "count": 65533,
      "max": [
        0.9998608231544495,
        0.9998619556427002
      ],
      "min": [
        0.00014109608309809119,
        0.0002124309539794922
      ],
      "type": "VEC2"
    },
    {
      "bufferView": 0,
      "byteOffset": 885156,
      "componentType": 5125,
      "count": 145398,
      "type": "SCALAR"
    },
    {
      "bufferView": 2,
      "byteOffset": 3145560,
      "componentType": 5126,
      "count": 65534,
      "max": [
        546.9880981445313,
        363.9818115234375,
        472.7472839355469
      ],
      "min": [
        -452.25042724609375,
        -423.0253601074219,
        -510.23773193359375
      ],
      "type": "VEC3"
    },
    {
      "bufferView": 2,
      "byteOffset": 3931968,
      "componentType": 5126,
      "count": 65534,
      "max": [
        0.9999088644981384,
        0.9999977946281433,
        0.9998891353607178
      ],
      "min": [
        -0.9999832510948181,
        -0.9999669790267944,
        -0.9999658465385437
      ],
      "type": "VEC3"
    },
    {
      "bufferView": 1,
      "byteOffset": 1048520,
      "componentType": 5126,
      "count": 65534,
      "max": [
        0.9998624920845032,
        0.9998619556427002
      ],
      "min": [
        0.0001375410647597164,
        0.00021016597747802734
      ],
      "type": "VEC2"
    },
    {
      "bufferView": 0,
      "byteOffset": 1466748,
      "componentType": 5125,
      "count": 103338,
      "type": "SCALAR"
    },
    {
      "bufferView": 2,
      "byteOffset": 4718376,
      "componentType": 5126,
      "count": 49805,
      "max": [
        547.035400390625,
        368.2244567871094,
        472.7516784667969
      ],
      "min": [
        -452.5929870605469,
        -421.8282775878906,
        -510.3970642089844
      ],
      "type": "VEC3"
    },
    {
      "bufferView": 2,
      "byteOffset": 5316036,
      "componentType": 5126,
      "count": 49805,
      "max": [
        0.9999364614486694,
        0.9999998807907104,
        0.9998846054077148
      ],
      "min": [
        -0.9999832510948181,
        -0.9999669790267944,
        -0.9999748468399048
      ],
      "type": "VEC3"
    },
    {
      "bufferView": 1,
      "byteOffset": 1572792,
      "componentType": 5126,
      "count": 49805,
      "max": [
        0.9998233914375305,
        0.9998520612716675
      ],
      "min": [
        0.00013865751679986715,
        0.0002231597900390625
      ],
      "type": "VEC2"
    },
    {
      "bufferView": 0,
      "byteOffset": 1880100,
      "componentType": 5125,
      "count": 68460,
      "type": "SCALAR"
    }
  ],
  "asset": {
    "extras": {
      "author": "nedo (https://sketchfab.com/nedo)",
      "license": "CC-BY-4.0 (http://creativecommons.org/licenses/by/4.0/)",
      "source": "https://sketchfab.com/3d-models/flower-vase-terracotta-45b462ad99d34d37a6c36f1a34a65c37",
      "title": "Flower vase terracotta"
    },
    "generator": "Sketchfab-12.68.0",
    "version": "2.0"
  },
  "bufferViews": [
    {
      "buffer": 0,
      "byteLength": 2153940,
      "name": "floatBufferViews",
      "target": 34963
    },
    {
      "buffer": 0,
      "byteLength": 1971232,
      "byteOffset": 2153940,
      "byteStride": 8,
      "name": "floatBufferViews",
      "target": 34962
    },
    {
      "buffer": 0,
      "byteLength": 5913696,
      "byteOffset": 4125172,
      "byteStride": 12,
      "name": "floatBufferViews",
      "target": 34962
    }
  ],
  "buffers": [
    {
      "byteLength": 10038868,
      "uri": "scene.bin"
    }
  ],
  "extensionsUsed": [
    "KHR_materials_unlit"
  ],
  "images": [
    {
      "uri": "textures/Material0_baseColor.jpeg"
    }
  ],
  "materials": [
    {
      "doubleSided": true,
      "extensions": {
        "KHR_materials_unlit": {}
      },
      "name": "Material0",
      "pbrMetallicRoughness": {
        "baseColorTexture": {
          "index": 0
        },
        "metallicFactor": 0.0
      }
    }
  ],
  "meshes": [
    {
      "name": "Stereo textured mesh_Material0_0",
      "primitives": [
        {
          "attributes": {
            "NORMAL": 1,
            "POSITION": 0,
            "TEXCOORD_0": 2
          },
          "indices": 3,
          "material": 0,
          "mode": 4
        }
      ]
    },
    {
      "name": "Stereo textured mesh_Material0_0",
      "primitives": [
        {
          "attributes": {
            "NORMAL": 5,
            "POSITION": 4,
            "TEXCOORD_0": 6
          },
          "indices": 7,
          "material": 0,
          "mode": 4
        }
      ]
    },
    {
      "name": "Stereo textured mesh_Material0_0",
      "primitives": [
        {
          "attributes": {
            "NORMAL": 9,
            "POSITION": 8,
            "TEXCOORD_0": 10
          },
          "indices": 11,
          "material": 0,
          "mode": 4
        }
      ]
    },
    {
      "name": "Stereo textured mesh_Material0_0",
      "primitives": [
        {
          "attributes": {
            "NORMAL": 13,
            "POSITION": 12,
            "TEXCOORD_0": 14
          },
          "indices": 15,
          "material": 0,
          "mode": 4
        }
      ]
    }
  ],
  "nodes": [
    {
      "children": [
        1
      ],
      "matrix": [
        0.0013342894380912185,
        0.0,
        0.0,
        0.0,
        0.0,
        2.9627177113660663e-19,
        -0.0013342894380912185,
        0.0,
        0.0,
        0.0013342894380912185,
        2.9627177113660663e-19,
        0.0,
        0.0,
        0.0,
        0.0,
        1.0
      ],
      "name": "Sketchfab_model"
    },
    {
      "children": [
        2
      ],
      "matrix": [
        1.0,
        0.0,
        0.0,
        0.0,
        0.0,
        0.0,
        1.0,
        0.0,
        0.0,
        -1.0,
        0.0,
        0.0,
        0.0,
        0.0,
        0.0,
        1.0
      ],
      "name": "sketchfabTemp.obj.fbx"
    },
    {
      "children": [
        3
      ],
      "name": "RootNode"
    },
    {
      "children": [
        4,
        5,
        6,
        7
      ],
      "name": "Stereo textured mesh"
    },
    {
      "mesh": 0,
      "name": "Stereo textured mesh_Material0_0"
    },
    {
      "mesh": 1,
      "name": "Stereo textured mesh_Material0_0"
    },
    {
      "mesh": 2,
      "name": "Stereo textured mesh_Material0_0"
    },
    {
      "mesh": 3,
      "name": "Stereo textured mesh_Material0_0"
    }
  ],
  "samplers": [
    {
      "magFilter": 9729,
      "minFilter": 9987,
      "wrapS": 10497,
      "wrapT": 10497
    }
  ],
  "scene": 0,
  "scenes": [
    {
      "name": "Sketchfab_Scene",
      "nodes": [
        0
      ]
    }
  ],
  "textures": [
    {
      "sampler": 0,
      "source": 0
    }
  ]
}
